<svg width="40" height="40" viewBox="0 0 40 40" fill="none" xmlns="http://www.w3.org/2000/svg">
<path d="M35.9375 20.1094V20.0001C35.939 17.6311 35.4108 15.2919 34.3916 13.1534C33.3723 11.015 31.8879 9.13144 30.0469 7.64068L29.9688 7.56255L29.8906 7.50005C27.078 5.26752 23.591 4.05559 20 4.06255C17.6129 4.0564 15.2559 4.5962 13.1094 5.64068L12.9219 5.7188C10.7446 6.8046 8.84337 8.37218 7.36245 10.3025C5.88152 12.2329 4.85985 14.4752 4.37501 16.8594V16.8907C4.16635 17.914 4.06166 18.9557 4.06251 20.0001C4.06311 22.4758 4.64105 24.9173 5.75041 27.1306C6.85977 29.3439 8.46998 31.268 10.4531 32.7501L10.6094 32.8751H10.6406C13.3574 34.8612 16.6346 35.9336 20 35.9376C21.8047 35.943 23.5967 35.6364 25.2969 35.0313L25.3906 35.0001C28.453 33.8925 31.1039 31.876 32.9888 29.2204C34.8737 26.5649 35.9025 23.397 35.9375 20.1407V20.1094ZM34.0313 19.1094C33.5313 19.0782 33.0156 19.0626 32.5 19.0626C30.1115 19.0597 27.7342 19.3911 25.4375 20.0469C24.8589 18.2933 24.1051 16.6025 23.1875 15.0001L23.1094 14.8907C25.4989 13.4828 27.6505 11.7056 29.4844 9.62505C32.1738 12.0764 33.8043 15.4776 34.0313 19.1094ZM28.0156 8.45318C26.3169 10.3819 24.317 12.023 22.0938 13.3126C20.2962 10.7232 18.0467 8.47901 15.4531 6.68755C17.5392 5.97825 19.7626 5.76849 21.9445 6.07515C24.1264 6.38182 26.2059 7.19633 28.0156 8.45318ZM13.3906 7.5938C16.1569 9.29919 18.5488 11.5476 20.4219 14.2032C17.168 15.7588 13.6067 16.565 10 16.5626C8.80765 16.5602 7.61703 16.4714 6.43751 16.2969C6.94431 14.4499 7.82225 12.7256 9.01773 11.2293C10.2132 9.7329 11.7011 8.4959 13.3906 7.5938ZM5.93751 20.0001C5.93973 19.3782 5.98148 18.7572 6.06251 18.1407C7.36625 18.3333 8.68211 18.4325 10 18.4376C13.9713 18.4455 17.8908 17.5365 21.4531 15.7813L21.5625 15.9532C22.4214 17.4332 23.1231 18.999 23.6563 20.6251C22.2423 21.1302 20.8773 21.763 19.5781 22.5157C16.0777 24.5212 13.0967 27.3202 10.875 30.6876C9.32777 29.3694 8.08503 27.7312 7.23257 25.886C6.38012 24.0408 5.93826 22.0326 5.93751 20.0001ZM12.375 31.8126C15.2103 27.5153 19.335 24.2276 24.1563 22.4219C24.6065 24.2735 24.832 26.1726 24.8281 28.0782C24.8349 29.8711 24.6357 31.6589 24.2344 33.4063C22.2624 34.0313 20.1765 34.2126 18.1263 33.937C16.076 33.6615 14.112 32.936 12.375 31.8126ZM26.3281 32.5626C26.5777 31.0808 26.7031 29.5808 26.7031 28.0782C26.7051 25.9774 26.4533 23.8841 25.9531 21.8438C28.0841 21.2455 30.2867 20.9406 32.5 20.9376C33.0156 20.9376 33.5156 20.9532 34.0313 20.9844C33.858 23.4157 33.0573 25.7604 31.7071 27.7897C30.357 29.819 28.5037 31.4635 26.3281 32.5626Z" fill="url(#paint0_linear_1665_564)"/>
<defs>
<linearGradient id="paint0_linear_1665_564" x1="18.2718" y1="4.0625" x2="36.0373" y2="17.783" gradientUnits="userSpaceOnUse">
<stop stop-color="#7DE5ED"/>
<stop offset="1" stop-color="#5837D0"/>
</linearGradient>
</defs>
</svg>
