<svg width="40" height="40" viewBox="0 0 40 40" fill="none" xmlns="http://www.w3.org/2000/svg">
<path d="M30.7283 34.895H9.27165C8.16658 34.895 7.10677 34.456 6.32537 33.6746C5.54397 32.8932 5.10498 31.8334 5.10498 30.7283V9.27165C5.10498 8.16658 5.54397 7.10677 6.32537 6.32537C7.10677 5.54397 8.16658 5.10498 9.27165 5.10498H30.7283C31.8334 5.10498 32.8932 5.54397 33.6746 6.32537C34.456 7.10677 34.895 8.16658 34.895 9.27165V30.7283C34.895 31.8334 34.456 32.8932 33.6746 33.6746C32.8932 34.456 31.8334 34.895 30.7283 34.895ZM9.27165 6.77165C8.60861 6.77165 7.97272 7.03504 7.50388 7.50388C7.03504 7.97272 6.77165 8.60861 6.77165 9.27165V30.7283C6.77165 31.3914 7.03504 32.0272 7.50388 32.4961C7.97272 32.9649 8.60861 33.2283 9.27165 33.2283H30.7283C31.3914 33.2283 32.0272 32.9649 32.4961 32.4961C32.9649 32.0272 33.2283 31.3914 33.2283 30.7283V9.27165C33.2283 8.60861 32.9649 7.97272 32.4961 7.50388C32.0272 7.03504 31.3914 6.77165 30.7283 6.77165H9.27165Z" fill="url(#paint0_linear_1665_560)"/>
<path d="M20.0001 27.6566C18.4857 27.655 17.0058 27.2044 15.7475 26.3618C14.4891 25.5192 13.5088 24.3225 12.9305 22.9229C12.3522 21.5232 12.2018 19.9836 12.4984 18.4985C12.795 17.0135 13.5252 15.6496 14.5967 14.5795C15.6682 13.5094 17.033 12.7809 18.5185 12.4863C20.0039 12.1917 21.5434 12.3441 22.9422 12.9242C24.3411 13.5043 25.5366 14.4862 26.3775 15.7456C27.2184 17.0051 27.6671 18.4856 27.6668 20C27.6641 22.0316 26.8552 23.979 25.4177 25.4147C23.9802 26.8503 22.0317 27.6566 20.0001 27.6566ZM20.0001 14C18.8158 14.0016 17.6585 14.3542 16.6744 15.0132C15.6904 15.6722 14.9237 16.6081 14.4713 17.7026C14.0188 18.7971 13.9009 20.0011 14.1323 21.1626C14.3638 22.3241 14.9342 23.3909 15.7717 24.2284C16.6091 25.0658 17.676 25.6363 18.8375 25.8678C19.999 26.0992 21.203 25.9813 22.2975 25.5288C23.392 25.0763 24.3278 24.3097 24.9869 23.3256C25.6459 22.3416 25.9985 21.1843 26.0001 20C26.0001 18.4087 25.368 16.8825 24.2427 15.7573C23.1175 14.6321 21.5914 14 20.0001 14Z" fill="url(#paint1_linear_1665_560)"/>
<path d="M28.6667 13.175C29.6562 13.175 30.4583 12.3729 30.4583 11.3833C30.4583 10.3938 29.6562 9.59167 28.6667 9.59167C27.6772 9.59167 26.875 10.3938 26.875 11.3833C26.875 12.3729 27.6772 13.175 28.6667 13.175Z" fill="url(#paint2_linear_1665_560)"/>
<defs>
<linearGradient id="paint0_linear_1665_560" x1="18.3849" y1="5.10498" x2="34.9882" y2="17.9281" gradientUnits="userSpaceOnUse">
<stop stop-color="#7DE5ED"/>
<stop offset="1" stop-color="#5837D0"/>
</linearGradient>
<linearGradient id="paint1_linear_1665_560" x1="19.178" y1="12.34" x2="27.7147" y2="18.933" gradientUnits="userSpaceOnUse">
<stop stop-color="#7DE5ED"/>
<stop offset="1" stop-color="#5837D0"/>
</linearGradient>
<linearGradient id="paint2_linear_1665_560" x1="28.4724" y1="9.59168" x2="30.4695" y2="11.1341" gradientUnits="userSpaceOnUse">
<stop stop-color="#7DE5ED"/>
<stop offset="1" stop-color="#5837D0"/>
</linearGradient>
</defs>
</svg>
